Coordinates
version=1
nRows=13
nColumns=27
inDegrees=yes

Units are S.I. units (second, meters, Newtons, ...)
If the header above contains a line with 'inDegrees', this indicates whether rotational values are in degrees (yes) or radians (no).

endheader
time	pelvis_rotation	pelvis_tilt	pelvis_list	pelvis_tx	pelvis_ty	pelvis_tz	hip_flexion_r	hip_adduction_r	hip_rotation_r	knee_angle_r	knee_rotation_r	knee_adduction_r	knee_angle_r_beta	ankle_angle_r	subtalar_angle_r	mtp_angle_r	hip_flexion_l	hip_adduction_l	hip_rotation_l	knee_angle_l	knee_rotation_l	knee_adduction_l	knee_angle_l_beta	ankle_angle_l	subtalar_angle_l	mtp_angle_l
     11.08000000	      1.12781625	    -38.04666864	      9.70073922	     -0.07470443	      0.89180103	     -1.20584492	     66.64830041	    -13.23916366	    -12.25040808	     34.67562914	      0.00000000	      8.67546200	      0.60520390	      4.73516526	      0.00000000	      0.00000000	     59.16409214	     -0.97961512	    -19.38544756	     23.74195105	      0.00000000	     -3.37911174	      0.41437522	     -1.18342993	      0.00000000	      0.00000000
     11.08500000	      1.29952704	    -37.98486219	      9.61666288	     -0.07504712	      0.89150974	     -1.20578404	     66.61541685	    -13.30873095	    -12.48836064	     34.76900991	      0.00000000	      8.71321763	      0.60683370	      4.76013402	      0.00000000	      0.00000000	     59.25228783	     -0.99914505	    -19.21588060	     23.89641906	      0.00000000	     -3.48023047	      0.41707119	     -1.13700182	      0.00000000	      0.00000000
     11.09000000	      2.32621411	    -39.20858935	      9.44719614	     -0.07769196	      0.89061739	     -1.20586065	     68.06020073	    -13.56279624	    -13.32780058	     35.11623208	      0.00000000	      8.68905686	      0.61289387	      4.72647746	      0.00000000	      0.00000000	     61.30239649	     -0.89658428	    -17.47007678	     24.61502271	      0.00000000	     -2.77744132	      0.42961319	     -1.19056423	      0.00000000	      0.00000000
     11.09500000	      1.83627256	    -37.98801312	      9.45159294	     -0.07598372	      0.89089626	     -1.20575378	     66.67831994	    -13.53209111	    -13.11185283	     34.97498737	      0.00000000	      8.78897442	      0.61042869	      4.77928114	      0.00000000	      0.00000000	     59.63296907	     -0.95403502	    -18.57209465	     24.22670509	      0.00000000	     -3.53451429	      0.42283577	     -1.07710444	      0.00000000	      0.00000000
     11.10000000	      1.52068706	    -38.00619378	      9.84953494	     -0.07673213	      0.89039262	     -1.20602371	     67.11488471	    -13.56488354	    -12.31224928	     35.30941177	      0.00000000	      8.77155355	      0.61626549	      4.80751326	      0.00000000	      0.00000000	     59.63314494	     -0.91973116	    -19.45531156	     24.29144182	      0.00000000	     -3.77074393	      0.42396564	     -1.06563030	      0.00000000	      0.00000000
     11.10500000	      1.74459770	    -38.85708752	      9.57907172	     -0.07904104	      0.88956187	     -1.20564278	     68.19525414	    -13.23620413	    -11.96934481	     35.51274693	      0.00000000	      8.04960710	      0.61981436	      4.66005437	      0.00000000	      0.00000000	     61.05790001	     -1.21862421	    -18.75846915	     24.96115488	      0.00000000	     -3.40902695	      0.43565434	     -0.98344008	      0.00000000	      0.00000000
     11.11000000	      2.02149938	    -38.04279473	      9.81819039	     -0.07785344	      0.88973695	     -1.20609832	     67.29937434	    -13.82464402	    -12.73819195	     35.56720176	      0.00000000	      8.82298204	      0.62076478	      4.84419532	      0.00000000	      0.00000000	     60.01278805	     -0.82109925	    -19.03023864	     24.56339769	      0.00000000	     -3.85396837	      0.42871217	     -1.05140191	      0.00000000	      0.00000000
     11.11500000	      2.05842217	    -38.17484007	     10.06130409	     -0.07875609	      0.88923964	     -1.20630321	     67.72796323	    -13.94238329	    -12.42051111	     35.84157721	      0.00000000	      8.81728071	      0.62555353	      4.86965272	      0.00000000	      0.00000000	     60.26310181	     -0.73978693	    -19.30266101	     24.68642232	      0.00000000	     -3.94138472	      0.43085935	     -1.03818306	      0.00000000	      0.00000000
     11.12000000	      2.25212864	    -38.66752304	      9.92803576	     -0.08046072	      0.88858194	     -1.20609562	     68.40930501	    -13.74580296	    -12.04559480	     36.00715259	      0.00000000	      8.17682098	      0.62844337	      4.78960372	      0.00000000	      0.00000000	     61.14715320	     -0.88596396	    -18.85726342	     25.10823207	      0.00000000	     -3.70112017	      0.43822132	     -0.99476252	      0.00000000	      0.00000000
     11.12500000	      2.52535391	    -38.33892535	     10.20291117	     -0.08024765	      0.88847322	     -1.20653237	     68.17645280	    -14.24627580	    -12.59296975	     36.18985538	      0.00000000	      8.84619355	      0.63163213	      4.92162467	      0.00000000	      0.00000000	     60.76730994	     -0.57546753	    -19.07892461	     24.93677811	      0.00000000	     -4.02400621	      0.43522888	     -1.05842530	      0.00000000	      0.00000000
     11.13000000	      2.42337835	    -38.80691032	      9.89654111	     -0.08196872	      0.88788227	     -1.20604653	     68.76446810	    -13.77410416	    -12.04960242	     36.22241872	      0.00000000	      8.13004907	      0.63220047	      4.77184084	      0.00000000	      0.00000000	     61.58925458	     -0.97046577	    -18.88856174	     25.41495190	      0.00000000	     -3.91044781	      0.44357459	     -0.97456820	      0.00000000	      0.00000000
     11.13500000	      2.37411423	    -38.22908696	     10.25440235	     -0.08137219	      0.88784373	     -1.20648405	     68.32405519	    -14.19815030	    -12.28925710	     36.41856385	      0.00000000	      8.82962880	      0.63562385	      4.89752366	      0.00000000	      0.00000000	     60.78601292	     -0.72960623	    -19.72994907	     25.12962439	      0.00000000	     -4.47932725	      0.43859469	     -1.02282468	      0.00000000	      0.00000000
     11.14000000	      2.46951295	    -38.29195391	     10.28551707	     -0.08214081	      0.88750157	     -1.20654644	     68.49425842	    -14.24763113	    -12.28685863	     36.50653819	      0.00000000	      8.83197226	      0.63715929	      4.91624420	      0.00000000	      0.00000000	     60.99436794	     -0.73588568	    -19.77671525	     25.27292389	      0.00000000	     -4.60346430	      0.44109573	     -0.99140479	      0.00000000	      0.00000000
